# xmcd
#
# Track frame offsets:
#   150
#   10301
#   21824
#   34220
#   47101
#   56242
#   67959
#   79905
#   90697
#   104411
#   116540
#   126170
#   139143
#   153953
#
# Disc length: 2232 seconds
#
# Revision: 0
# Processed by: cddbd v1.5.2PL0 Copyright (c) Steve Scherf et al.
# Submitted via: uFREEDB 1.6.0
#
DISCID=bc08b60e
DTITLE=Reeves, Jim - Jim Reeves' Golden Records
DYEAR=1900
DGENRE=country
TTITLE0=The Wreck Of The Number 9
TTITLE1=Welcome To My World
TTITLE2=Bimbo
TTITLE3=The White Cliffs Of Dover
TTITLE4=I Want Forget You
TTITLE5=Mexican Joe
TTITLE6=A Letter To My Heart
TTITLE7=Just Walking In The Rain
TTITLE8=The Streets Of Laredo
TTITLE9=I Love You Because
TTITLE10=Missing Angel
TTITLE11=Danny Boy
TTITLE12=Blue Side Of Lonesome
TTITLE13=Auf Wiedersehn Sweetheart
EXTD=
EXTT0=
EXTT1=
EXTT2=
EXTT3=
EXTT4=
EXTT5=
EXTT6=
EXTT7=
EXTT8=
EXTT9=
EXTT10=
EXTT11=
EXTT12=
EXTT13=
PLAYORDER=
